<svg width="783" height="683" viewBox="0 0 783 683" fill="none" xmlns="http://www.w3.org/2000/svg">
<rect width="783" height="683" rx="8" fill="#242424"/>
<path d="M258.6 215.4L305.6 291H261.4L229.2 240.6L211 257L204.2 291H165.2L193.2 151H232.2L220.8 208.2L284 151H330.6L258.6 215.4ZM376.391 181.6L371.791 205.2H433.991L428.191 234.8H365.791L360.791 260.4H434.191L427.791 291H315.591L343.591 151H453.191L446.991 181.6H376.391ZM533.594 241.4L523.794 291H484.194L494.194 240.4L458.594 151H498.394L520.394 206.8L565.194 151H605.394L533.594 241.4Z" fill="#FF5A81"/>
<path d="M193.2 395H232.8L211.2 503.6H278L271.6 535H165.2L193.2 395ZM315.27 395H354.87L326.87 535H287.27L315.27 395ZM516.044 395L488.044 535H455.444L409.244 458.2L393.844 535H355.044L383.044 395H415.644L462.044 471.6L477.244 395H516.044ZM609.577 459.4L656.577 535H612.377L580.177 484.6L561.977 501L555.177 535H516.177L544.177 395H583.177L571.777 452.2L634.977 395H681.577L609.577 459.4Z" fill="#9397FF"/>
</svg>
